<svg width="91" height="92" viewBox="0 0 91 92" fill="none" xmlns="http://www.w3.org/2000/svg">
<rect y="0.613281" width="91" height="91.3871" rx="45.5" fill="#F79999"/>
<path d="M48.1322 23.1487V18.2713C48.1322 17.3012 47.7468 16.3707 47.0608 15.6847C46.3747 14.9987 45.4443 14.6133 44.4741 14.6133L39.5967 25.5874V39.0002H53.351C53.9391 39.0069 54.5098 38.8008 54.958 38.4198C55.4061 38.0389 55.7015 37.5089 55.7897 36.9274L57.4724 25.9532C57.5254 25.6037 57.5019 25.2468 57.4033 24.9073C57.3047 24.5678 57.1335 24.2538 56.9016 23.987C56.6696 23.7203 56.3824 23.5071 56.0599 23.3624C55.7373 23.2176 55.3872 23.1447 55.0337 23.1487H48.1322ZM39.5967 39.0002H35.9387C35.2919 39.0002 34.6716 38.7433 34.2143 38.286C33.7569 37.8286 33.5 37.2083 33.5 36.5615V28.0261C33.5 27.3793 33.7569 26.759 34.2143 26.3017C34.6716 25.8443 35.2919 25.5874 35.9387 25.5874H39.5967" fill="white"/>
<path d="M39.5967 25.5874L44.4741 14.6133C45.4443 14.6133 46.3747 14.9987 47.0608 15.6847C47.7468 16.3707 48.1322 17.3012 48.1322 18.2713V23.1487H55.0337C55.3872 23.1447 55.7373 23.2176 56.0599 23.3624C56.3824 23.5071 56.6696 23.7203 56.9016 23.987C57.1335 24.2538 57.3047 24.5678 57.4033 24.9073C57.5019 25.2468 57.5254 25.6037 57.4724 25.9532L55.7897 36.9274C55.7015 37.5089 55.4061 38.0389 54.958 38.4198C54.5098 38.8008 53.9391 39.0069 53.351 39.0002H39.5967M39.5967 25.5874V39.0002M39.5967 25.5874H35.9387C35.2919 25.5874 34.6716 25.8443 34.2143 26.3017C33.7569 26.759 33.5 27.3793 33.5 28.0261V36.5615C33.5 37.2083 33.7569 37.8286 34.2143 38.286C34.6716 38.7433 35.2919 39.0002 35.9387 39.0002H39.5967" stroke="black" stroke-width="2" stroke-linecap="round" stroke-linejoin="round"/>
<path d="M27.7656 71.9375H25.7578V69.6172H27.7656V71.9375ZM33.7969 75.4375H31.7812V61.2031H33.7969V75.4375ZM35.6484 68.6484H33.1094V67.0078H35.6484V68.6484ZM22.2578 71.4219C24.0703 71.4219 25.6745 71.401 27.0703 71.3594C28.4661 71.3125 29.8021 71.1979 31.0781 71.0156L31.2109 72.4688C30.2786 72.6458 29.3073 72.776 28.2969 72.8594C27.2917 72.9427 26.349 72.9974 25.4688 73.0234C24.5938 73.0443 23.612 73.0547 22.5234 73.0547L22.2578 71.4219ZM30.9609 64.3594H22.5234V62.7969H30.9609V64.3594ZM26.7812 64.9297C27.4531 64.9297 28.0521 65.0417 28.5781 65.2656C29.1094 65.4844 29.5234 65.7969 29.8203 66.2031C30.1224 66.6094 30.2734 67.0755 30.2734 67.6016C30.2734 68.1224 30.1224 68.5859 29.8203 68.9922C29.5234 69.3932 29.1094 69.7057 28.5781 69.9297C28.0521 70.1536 27.4531 70.2656 26.7812 70.2656C26.099 70.2656 25.4922 70.1536 24.9609 69.9297C24.4297 69.7057 24.0156 69.3932 23.7188 68.9922C23.4219 68.5859 23.276 68.1224 23.2812 67.6016C23.276 67.0755 23.4219 66.6094 23.7188 66.2031C24.0156 65.7969 24.4297 65.4844 24.9609 65.2656C25.4922 65.0417 26.099 64.9297 26.7812 64.9297ZM26.7812 66.4375C26.4531 66.4375 26.1693 66.4844 25.9297 66.5781C25.6901 66.6667 25.5026 66.7995 25.3672 66.9766C25.2318 67.1484 25.1667 67.3568 25.1719 67.6016C25.1667 67.8464 25.2318 68.0547 25.3672 68.2266C25.5026 68.3932 25.6901 68.5234 25.9297 68.6172C26.1693 68.7057 26.4531 68.75 26.7812 68.75C27.0938 68.75 27.3698 68.7057 27.6094 68.6172C27.849 68.5234 28.0339 68.3932 28.1641 68.2266C28.2995 68.0547 28.3672 67.8464 28.3672 67.6016C28.3672 67.362 28.2995 67.1536 28.1641 66.9766C28.0339 66.7995 27.849 66.6667 27.6094 66.5781C27.3698 66.4844 27.0938 66.4375 26.7812 66.4375ZM27.7656 63.9453H25.7578V61.2891H27.7656V63.9453ZM48.1562 75.4766H46.1328V61.2031H48.1562V75.4766ZM40.4297 62.2109C41.1432 62.2109 41.7839 62.4193 42.3516 62.8359C42.9245 63.2474 43.3698 63.8385 43.6875 64.6094C44.0104 65.375 44.1719 66.2656 44.1719 67.2812C44.1719 68.3021 44.0104 69.1979 43.6875 69.9688C43.3698 70.7344 42.9245 71.3229 42.3516 71.7344C41.7839 72.1458 41.1432 72.3516 40.4297 72.3516C39.7057 72.3568 39.0573 72.1536 38.4844 71.7422C37.9167 71.3255 37.4714 70.7344 37.1484 69.9688C36.8255 69.1979 36.6641 68.3021 36.6641 67.2812C36.6641 66.2656 36.8255 65.375 37.1484 64.6094C37.4714 63.8385 37.9167 63.2474 38.4844 62.8359C39.0573 62.4193 39.7057 62.2109 40.4297 62.2109ZM40.4297 64.0156C40.0599 64.0104 39.7344 64.1354 39.4531 64.3906C39.1771 64.6406 38.9635 65.013 38.8125 65.5078C38.6667 65.9974 38.5964 66.5885 38.6016 67.2812C38.5964 67.974 38.6667 68.5651 38.8125 69.0547C38.9635 69.5443 39.1771 69.9167 39.4531 70.1719C39.7344 70.4219 40.0599 70.5469 40.4297 70.5469C40.7891 70.5469 41.1068 70.4219 41.3828 70.1719C41.6589 69.9167 41.8724 69.5443 42.0234 69.0547C42.1745 68.5651 42.25 67.974 42.25 67.2812C42.25 66.5885 42.1745 65.9974 42.0234 65.5078C41.8724 65.0182 41.6589 64.6458 41.3828 64.3906C41.1068 64.1354 40.7891 64.0104 40.4297 64.0156ZM52.5312 67.5938C54.0885 67.599 55.2969 67.5833 56.1562 67.5469C57.0156 67.5052 57.8802 67.4115 58.75 67.2656L58.9453 68.8281C57.9974 68.9844 57.0312 69.0859 56.0469 69.1328C55.0677 69.1797 53.7474 69.2005 52.0859 69.1953H50.8594V67.5938H52.0859H52.5312ZM57.75 63.7969H52.8672V68.2734H50.8594V62.2109H57.75V63.7969ZM57.3359 66.4531H52.25V64.9062H57.3359V66.4531ZM61.9766 69.8438H59.9844V61.2344H61.9766V69.8438ZM57.1484 70.0312C58.1432 70.0365 59.0078 70.1458 59.7422 70.3594C60.4818 70.5677 61.0495 70.875 61.4453 71.2812C61.8464 71.6875 62.0469 72.1745 62.0469 72.7422C62.0469 73.3047 61.8464 73.7865 61.4453 74.1875C61.0495 74.5938 60.4844 74.9036 59.75 75.1172C59.0156 75.3307 58.1484 75.4375 57.1484 75.4375C56.138 75.4375 55.2656 75.3307 54.5312 75.1172C53.7969 74.9036 53.2318 74.5938 52.8359 74.1875C52.4453 73.7865 52.25 73.3047 52.25 72.7422C52.25 72.1745 52.4453 71.6875 52.8359 71.2812C53.2318 70.875 53.7969 70.5677 54.5312 70.3594C55.2656 70.1458 56.138 70.0365 57.1484 70.0312ZM57.1484 71.5703C56.5078 71.5703 55.9714 71.6146 55.5391 71.7031C55.1068 71.7865 54.7812 71.9167 54.5625 72.0938C54.3438 72.2708 54.237 72.487 54.2422 72.7422C54.237 73.0026 54.3438 73.2188 54.5625 73.3906C54.7812 73.5625 55.1068 73.6927 55.5391 73.7812C55.9714 73.8698 56.5078 73.9167 57.1484 73.9219C57.7786 73.9167 58.3099 73.8698 58.7422 73.7812C59.1745 73.6927 59.5026 73.5625 59.7266 73.3906C59.9505 73.2135 60.0625 72.9974 60.0625 72.7422C60.0625 72.487 59.9505 72.2734 59.7266 72.1016C59.5026 71.9245 59.1719 71.7917 58.7344 71.7031C58.3021 71.6146 57.7734 71.5703 57.1484 71.5703ZM66.9297 70.6172H64.9375L64.7266 62.6875H67.1484L66.9297 70.6172ZM65.9375 74.1406C65.6979 74.1406 65.4766 74.0833 65.2734 73.9688C65.0755 73.849 64.9167 73.6875 64.7969 73.4844C64.6771 73.2812 64.6198 73.0599 64.625 72.8203C64.6198 72.5859 64.6771 72.3698 64.7969 72.1719C64.9167 71.974 65.0755 71.8177 65.2734 71.7031C65.4766 71.5885 65.6979 71.5312 65.9375 71.5312C66.1667 71.5312 66.3802 71.5885 66.5781 71.7031C66.7812 71.8177 66.9427 71.9766 67.0625 72.1797C67.1823 72.3776 67.2448 72.5911 67.25 72.8203C67.2448 73.0599 67.1823 73.2812 67.0625 73.4844C66.9427 73.6875 66.7812 73.849 66.5781 73.9688C66.3802 74.0833 66.1667 74.1406 65.9375 74.1406Z" fill="black"/>
</svg>
