<svg xmlns="http://www.w3.org/2000/svg" width="26" height="27" viewBox="0 0 26 27" fill="none">
  <path d="M25 12.5267C25.0046 14.2865 24.5934 16.0226 23.8 17.5934C22.8592 19.4757 21.413 21.0589 19.6232 22.1657C17.8335 23.2725 15.771 23.8592 13.6666 23.86C11.9068 23.8646 10.1708 23.4535 8.59999 22.66L1 25.1934L3.53333 17.5934C2.73991 16.0226 2.32874 14.2865 2.33333 12.5267C2.33415 10.4224 2.92081 8.35985 4.02762 6.57012C5.13443 4.78039 6.71766 3.33415 8.59999 2.3934C10.1708 1.59997 11.9068 1.18881 13.6666 1.1934H14.3333C17.1124 1.34672 19.7374 2.51974 21.7055 4.48787C23.6736 6.456 24.8466 9.08092 25 11.86V12.5267Z" fill="white" stroke="black" stroke-width="2" stroke-linecap="round" stroke-linejoin="round"/>
  <circle cx="7.5" cy="12.5" r="1.5" fill="black"/>
  <circle cx="13.5" cy="12.5" r="1.5" fill="black"/>
  <circle cx="19.5" cy="12.5" r="1.5" fill="black"/>
</svg>