<svg width="26" height="27" viewBox="0 0 26 27" fill="none" xmlns="http://www.w3.org/2000/svg">
<path d="M15.6322 9.53544V4.65804C15.6322 3.68787 15.2468 2.75743 14.5608 2.07142C13.8747 1.3854 12.9443 1 11.9741 1L7.09674 11.9741V25.387H20.851C21.4391 25.3936 22.0098 25.1875 22.458 24.8066C22.9061 24.4256 23.2015 23.8956 23.2897 23.3141L24.9724 12.3399C25.0254 11.9904 25.0019 11.6335 24.9033 11.294C24.8047 10.9545 24.6335 10.6405 24.4016 10.3738C24.1696 10.107 23.8824 9.89384 23.5599 9.74909C23.2373 9.60433 22.8872 9.53143 22.5337 9.53544H15.6322ZM7.09674 25.387H3.4387C2.79191 25.387 2.17162 25.13 1.71428 24.6727C1.25693 24.2153 1 23.595 1 22.9483V14.4128C1 13.766 1.25693 13.1458 1.71428 12.6884C2.17162 12.2311 2.79191 11.9741 3.4387 11.9741H7.09674" fill="#F27405"/>
<path d="M7.09674 11.9741L11.9741 1C12.9443 1 13.8747 1.3854 14.5608 2.07142C15.2468 2.75743 15.6322 3.68787 15.6322 4.65804V9.53544H22.5337C22.8872 9.53143 23.2373 9.60433 23.5599 9.74909C23.8824 9.89384 24.1696 10.107 24.4016 10.3738C24.6335 10.6405 24.8047 10.9545 24.9033 11.294C25.0019 11.6335 25.0254 11.9904 24.9724 12.3399L23.2897 23.3141C23.2015 23.8956 22.9061 24.4256 22.458 24.8066C22.0098 25.1875 21.4391 25.3936 20.851 25.387H7.09674M7.09674 11.9741V25.387M7.09674 11.9741H3.4387C2.79191 11.9741 2.17162 12.2311 1.71428 12.6884C1.25693 13.1458 1 13.766 1 14.4128V22.9483C1 23.595 1.25693 24.2153 1.71428 24.6727C2.17162 25.13 2.79191 25.387 3.4387 25.387H7.09674" stroke="black" stroke-width="2" stroke-linecap="round" stroke-linejoin="round"/>
</svg>
